<?xml version="1.0" standalone="no"?>
<!DOCTYPE svg PUBLIC "-//W3C//DTD SVG 20010904//EN"
 "http://www.w3.org/TR/2001/REC-SVG-20010904/DTD/svg10.dtd">
<svg version="1.0" xmlns="http://www.w3.org/2000/svg"
 width="205.000000pt" height="93.000000pt" viewBox="0 0 205.000000 93.000000"
 preserveAspectRatio="xMidYMid meet">
<metadata>
Created by potrace 1.16, written by Peter Selinger 2001-2019
</metadata>
<g transform="translate(0.000000,93.000000) scale(0.100000,-0.100000)"
fill="#000000" stroke="none">
<path d="M285 810 c-3 -5 -3 -165 1 -355 l7 -345 44 0 43 0 1 123 1 122 24
-115 c12 -63 23 -116 23 -117 1 -2 11 -3 24 -3 22 0 24 7 42 115 10 63 21 115
25 115 4 0 6 -52 6 -115 l-1 -115 92 0 92 0 3 32 c3 30 6 33 38 33 30 0 35 -4
44 -32 l9 -33 88 0 88 0 3 103 3 102 35 -100 36 -100 42 -3 c29 -2 42 1 42 10
0 7 -13 58 -29 113 -38 133 -38 132 -8 195 15 30 27 64 27 74 0 55 13 -12 38
-190 l28 -199 52 -3 c29 -2 52 1 52 5 1 42 68 555 73 560 4 3 7 -125 7 -285
l0 -292 90 0 90 0 0 69 0 70 -42 3 -43 3 -3 67 c-3 64 -2 68 21 73 13 4 33 5
43 3 16 -2 20 4 22 41 6 76 -2 91 -49 91 l-40 0 3 68 3 67 38 3 37 3 0 75 0
74 -129 0 -128 0 -6 -42 c-3 -24 -11 -100 -18 -170 -7 -71 -15 -128 -19 -128
-4 0 -15 73 -24 163 -10 89 -20 165 -23 170 -5 9 -39 9 -72 0 -21 -5 -23 -10
-18 -49 2 -24 3 -44 1 -44 -2 0 -12 17 -23 38 -29 56 -87 74 -180 56 l-31 -6
-1 -297 -1 -296 -39 290 c-21 160 -38 293 -39 298 0 4 -24 7 -53 7 l-53 0 -28
-272 c-16 -150 -32 -286 -36 -303 -5 -17 -9 101 -9 273 l-1 303 -57 -3 -58 -3
-11 -65 c-7 -36 -17 -98 -24 -138 -7 -40 -14 -72 -16 -70 -2 2 -12 64 -24 137
-11 74 -23 138 -26 143 -7 11 -111 10 -119 -2z"/>
<path d="M1587 813 c-2 -5 -2 -164 1 -355 l4 -348 84 0 84 0 0 70 0 70 -40 0
-40 0 0 285 0 285 -44 0 c-25 0 -47 -3 -49 -7z"/>
</g>
</svg>
